<?xml version="1.0" standalone="no"?>
<!DOCTYPE svg PUBLIC "-//W3C//DTD SVG 20010904//EN"
 "http://www.w3.org/TR/2001/REC-SVG-20010904/DTD/svg10.dtd">
<svg version="1.0" xmlns="http://www.w3.org/2000/svg"
 width="512.000000pt" height="512.000000pt" viewBox="0 0 512.000000 512.000000"
 preserveAspectRatio="xMidYMid meet">
<metadata>
Created by potrace 1.11, written by Peter Selinger 2001-2013
</metadata>
<g transform="translate(0.000000,512.000000) scale(0.100000,-0.100000)"
fill="#000000" stroke="none">
<path d="M0 2560 l0 -2560 2560 0 2560 0 0 2560 0 2560 -2560 0 -2560 0 0
-2560z m4880 0 l0 -2320 -2320 0 -2320 0 0 2320 0 2320 2320 0 2320 0 0 -2320z"/>
<path d="M1375 3884 c-238 -37 -408 -199 -477 -456 -20 -72 -23 -107 -22 -258
1 -203 16 -278 85 -419 71 -144 197 -246 354 -286 76 -19 231 -19 314 0 198
47 350 205 411 428 41 149 43 388 5 540 -54 216 -205 381 -396 433 -56 15
-222 26 -274 18z m230 -248 c81 -40 136 -118 171 -247 26 -91 26 -347 0 -438
-37 -133 -94 -214 -181 -257 -48 -23 -64 -26 -132 -22 -90 4 -140 25 -193 79
-82 85 -122 224 -122 424 1 206 46 343 141 426 84 74 208 88 316 35z"/>
<path d="M2542 2560 l-901 -1311 147 3 147 3 897 1305 c494 718 898 1306 898
1308 0 1 -65 2 -144 2 l-144 0 -900 -1310z"/>
<path d="M3631 2601 c-25 -85 -151 -174 -266 -189 l-60 -7 -3 -108 -3 -107 28
0 c80 1 201 45 261 95 16 14 35 25 41 25 8 0 11 -150 11 -530 l0 -530 130 0
130 0 0 695 0 695 -128 0 -129 0 -12 -39z"/>
</g>
</svg>
