<svg width="512" height="512" viewBox="0 0 512 512" fill="none" xmlns="http://www.w3.org/2000/svg">
<path fill-rule="evenodd" clip-rule="evenodd" d="M86 69V161.5C86 164.733 87.6075 167.007 89.3374 169.453C91.3527 172.303 93.5342 175.388 93.5342 180.5C93.5342 185.612 91.3527 194.054 89.3374 201.852C87.6075 208.546 86 214.767 86 218V393H196V205.91C194.944 204.414 193.009 203.5 189.973 203.5C184.95 203.5 180.932 215 179.425 222C177.918 229 174.402 244 171.388 246C169.128 247.5 165.172 249.563 159.733 252.399C157.92 253.344 155.943 254.375 153.808 255.5C145.269 260 139.498 262 140 258C140.297 255.638 145.931 250.489 151.014 245.843C154.541 242.619 157.802 239.638 158.831 238C161.342 234 165.361 224.5 169.379 203.5C172.574 186.802 182.439 182.433 188.871 179.584C190.528 178.85 191.958 178.217 192.986 177.5C194.407 176.51 195.367 174.283 196 171.553V69H86Z" fill="#D0D2D9"/>
<path fill-rule="evenodd" clip-rule="evenodd" d="M105 117C105 113.686 107.686 111 111 111C114.314 111 117 113.686 117 117V345C117 348.314 114.314 351 111 351C107.686 351 105 348.314 105 345V117ZM135 117C135 113.686 137.686 111 141 111C144.314 111 147 113.686 147 117V249.55C143.339 253.002 140.219 256.259 140 258C139.648 260.807 142.385 260.659 147 258.766V345C147 348.314 144.314 351 141 351C137.686 351 135 348.314 135 345V117ZM165 249.638V345C165 348.314 167.686 351 171 351C174.314 351 177 348.314 177 345V232.197C175.34 238.458 173.266 244.754 171.388 246C169.938 246.962 167.79 248.156 165 249.638ZM177 187.272C173.707 190.786 170.843 195.849 169.379 203.5C167.894 211.261 166.409 217.452 165 222.374V117C165 113.686 167.686 111 171 111C174.314 111 177 113.686 177 117V187.272Z" fill="#676674" fill-opacity="0.5"/>
<path d="M61 429C61 412.029 61 403.544 66.2721 398.272C71.5442 393 80.0294 393 97 393H185C201.971 393 210.456 393 215.728 398.272C221 403.544 221 412.029 221 429V433H61V429Z" fill="#D0D2D9"/>
<rect x="61" y="421" width="160" height="12" fill="#676674" fill-opacity="0.5"/>
<path d="M38 468C38 451.029 38 442.544 43.2721 437.272C48.5442 432 57.0294 432 74 432H208C224.971 432 233.456 432 238.728 437.272C244 442.544 244 451.029 244 468V468H38V468Z" fill="#D0D2D9"/>
<rect x="86" y="69" width="110" height="12" fill="#676674" fill-opacity="0.5"/>
<rect x="86" y="381" width="110" height="12" fill="#676674" fill-opacity="0.5"/>
<rect x="46" y="45" width="186" height="24" rx="12" fill="#D0D2D9"/>
<path fill-rule="evenodd" clip-rule="evenodd" d="M317 248.894C317 249.115 317.007 249.317 317.019 249.5V248.222C317.181 245.263 318.421 240.117 322.594 236C327.197 231.459 339.64 221.762 346.736 216.231C349.016 214.455 350.744 213.108 351.483 212.5C353.325 210.985 354.61 208.553 355.674 206.538C356.366 205.226 356.966 204.091 357.565 203.5C357.802 203.266 358.027 202.934 358.294 202.541C359.735 200.417 362.393 196.5 374.797 196.5C384.8 196.5 387.995 200.205 392.211 205.094C394.19 207.389 396.394 209.945 399.631 212.5C404.482 216.328 409.912 219.583 414.479 222.321C419.457 225.305 423.409 227.675 424.466 229.5C426.088 232.3 426.831 238.667 427 241.5V393H317V248.894ZM317 248.894C317 248.685 317.006 248.461 317.019 248.222V192H317V248.894Z" fill="#D0D2D9"/>
<path fill-rule="evenodd" clip-rule="evenodd" d="M335 225.467V346.775C335 349.108 337.686 351 341 351C344.314 351 347 349.108 347 346.775V216.026C346.913 216.093 346.825 216.162 346.736 216.231C343.515 218.742 339.191 222.111 335 225.467ZM365 197.691V346.775C365 349.108 367.686 351 371 351C374.314 351 377 349.108 377 346.775V196.565C376.304 196.522 375.571 196.5 374.797 196.5C370.463 196.5 367.318 196.978 365 197.691ZM395 208.229V346.775C395 349.108 397.686 351 401 351C404.314 351 407 349.108 407 346.775V217.715C404.518 216.11 402.005 214.373 399.631 212.5C397.808 211.061 396.312 209.621 395 208.229Z" fill="#676674" fill-opacity="0.5"/>
<path d="M291 429C291 412.029 291 403.544 296.272 398.272C301.544 393 310.029 393 327 393H415C431.971 393 440.456 393 445.728 398.272C451 403.544 451 412.029 451 429V433H291V429Z" fill="#D0D2D9"/>
<rect x="291" y="421" width="160" height="12" fill="#676674" fill-opacity="0.5"/>
<path d="M268 468C268 451.029 268 442.544 273.272 437.272C278.544 432 287.029 432 304 432H438C454.971 432 463.456 432 468.728 437.272C474 442.544 474 451.029 474 468V468H268V468Z" fill="#D0D2D9"/>
<rect x="317" y="381" width="110" height="12" fill="#676674" fill-opacity="0.5"/>
<path d="M416 137C413.2 138.6 407.833 146.333 405.5 150C403.167 153.5 398 162 397.5 170.5C397 179 399.5 180.5 401 182C402.5 183.5 402.5 187 405.5 190.5C408.5 194 412.5 197.5 415.5 198.5C418.5 199.5 421.5 199.5 426 203C430.5 206.5 436.5 205 439.5 201.5C442.5 198 441.5 193 439.5 188C437.5 183 436 171.5 436.5 164C437 156.5 438.5 151 432.5 143C426.5 135 419.5 135 416 137Z" fill="#D0D2D9"/>
<path d="M377.25 153.5C375.65 147.9 373 144 371.25 144C366.25 144 356.75 154.5 355.25 157.5C353.75 160.5 353.25 163 355.75 169C358.25 175 360.25 180 365.75 180C371.25 180 376.25 177 380.75 174.5C385.25 172 384.75 168 384.25 163C383.75 158 379.25 160.5 377.25 153.5Z" fill="#D0D2D9"/>
</svg>
