<svg xmlns="http://www.w3.org/2000/svg" width="1440" height="160" fill="none" viewBox="0 0 1440 160"><mask id="path-1-inside-1" fill="#fff"><path fill-rule="evenodd" d="M93 28C89.6863 28 87 30.6863 87 34C87 37.3137 89.6863 40 93 40H114C115.105 40 115.967 40.92 116.329 41.9638C117.142 44.3131 119.374 46 122 46H135C138.314 46 141 43.3137 141 40C141 37.3741 139.313 35.1421 136.964 34.3287C135.92 33.9674 135.033 33.08 134.671 32.0362C133.858 29.6869 131.626 28 129 28H93Z" clip-rule="evenodd"/></mask><path fill="#676674" d="M116.329 41.9638L114.439 42.6181L116.329 41.9638ZM89 34C89 31.7909 90.7909 30 93 30V26C88.5817 26 85 29.5817 85 34H89ZM93 38C90.7909 38 89 36.2091 89 34H85C85 38.4183 88.5817 42 93 42V38ZM114 38H93V42H114V38ZM122 44C120.252 44 118.762 42.8782 118.219 41.3095L114.439 42.6181C115.522 45.7479 118.496 48 122 48V44ZM135 44H122V48H135V44ZM139 40C139 42.2091 137.209 44 135 44V48C139.418 48 143 44.4183 143 40H139ZM136.309 36.2187C137.878 36.7618 139 38.2525 139 40H143C143 36.4956 140.748 33.5224 137.618 32.4388L136.309 36.2187ZM129 30C130.748 30 132.238 31.1218 132.781 32.6905L136.561 31.3819C135.478 28.2521 132.504 26 129 26V30ZM93 30H129V26H93V30ZM137.618 32.4388C137.154 32.2781 136.722 31.8461 136.561 31.3819L132.781 32.6905C133.343 34.3139 134.686 35.6567 136.309 36.2187L137.618 32.4388ZM114 42C113.965 42 113.996 41.9788 114.102 42.0744C114.22 42.1806 114.354 42.372 114.439 42.6181L118.219 41.3095C117.713 39.8476 116.305 38 114 38V42Z" mask="url(#path-1-inside-1)"/><mask id="path-3-inside-2" fill="#fff"><path fill-rule="evenodd" d="M473 41C470.374 41 468.142 42.6869 467.329 45.0362C466.967 46.08 466.105 47 465 47H457C453.686 47 451 49.6863 451 53C451 56.3137 453.686 59 457 59H484C486.626 59 488.858 57.3131 489.671 54.9638C490.033 53.92 490.895 53 492 53H496C499.314 53 502 50.3137 502 47C502 43.6863 499.314 41 496 41H473Z" clip-rule="evenodd"/></mask><path fill="#676674" d="M489.671 54.9638L491.561 55.6181L489.671 54.9638ZM469.219 45.6905C469.762 44.1218 471.252 43 473 43V39C469.496 39 466.522 41.252 465.439 44.3819L469.219 45.6905ZM457 49H465V45H457V49ZM453 53C453 50.7909 454.791 49 457 49V45C452.582 45 449 48.5817 449 53H453ZM457 57C454.791 57 453 55.2091 453 53H449C449 57.4183 452.582 61 457 61V57ZM484 57H457V61H484V57ZM487.781 54.3095C487.238 55.8782 485.748 57 484 57V61C487.504 61 490.478 58.748 491.561 55.6181L487.781 54.3095ZM496 51H492V55H496V51ZM500 47C500 49.2091 498.209 51 496 51V55C500.418 55 504 51.4183 504 47H500ZM496 43C498.209 43 500 44.7909 500 47H504C504 42.5817 500.418 39 496 39V43ZM473 43H496V39H473V43ZM491.561 55.6181C491.646 55.372 491.78 55.1806 491.898 55.0744C492.004 54.9788 492.035 55 492 55V51C489.695 51 488.287 52.8476 487.781 54.3095L491.561 55.6181ZM465.439 44.3819C465.354 44.628 465.22 44.8194 465.102 44.9256C464.996 45.0212 464.965 45 465 45V49C467.305 49 468.713 47.1524 469.219 45.6905L465.439 44.3819Z" mask="url(#path-3-inside-2)"/><mask id="path-5-inside-3" fill="#fff"><path fill-rule="evenodd" d="M1371 37C1367.69 37 1365 39.6863 1365 43V43C1365 43.5257 1364.6 44 1364.08 44H1348C1344.69 44 1342 46.6863 1342 50C1342 53.3137 1344.69 56 1348 56H1383C1386.31 56 1389 53.3137 1389 50V50C1389 49.2599 1389.41 48.5465 1390.05 48.1703C1391.81 47.1264 1393 45.2017 1393 43C1393 39.6863 1390.31 37 1387 37H1371Z" clip-rule="evenodd"/></mask><path fill="#676674" d="M1390.05 48.1703L1391.06 49.8925L1390.05 48.1703ZM1367 43C1367 40.7909 1368.79 39 1371 39V35C1366.58 35 1363 38.5817 1363 43H1367ZM1348 46H1364.08V42H1348V46ZM1344 50C1344 47.7909 1345.79 46 1348 46V42C1343.58 42 1340 45.5817 1340 50H1344ZM1348 54C1345.79 54 1344 52.2091 1344 50H1340C1340 54.4183 1343.58 58 1348 58V54ZM1383 54H1348V58H1383V54ZM1387 50C1387 52.2091 1385.21 54 1383 54V58C1387.42 58 1391 54.4183 1391 50H1387ZM1391 43C1391 44.4654 1390.21 45.7491 1389.03 46.4481L1391.06 49.8925C1393.42 48.5037 1395 45.938 1395 43H1391ZM1387 39C1389.21 39 1391 40.7909 1391 43H1395C1395 38.5817 1391.42 35 1387 35V39ZM1371 39H1387V35H1371V39ZM1391 50C1391 49.9969 1391 49.9739 1391.02 49.9421C1391.04 49.9101 1391.06 49.8954 1391.06 49.8925L1389.03 46.4481C1387.79 47.1825 1387 48.5492 1387 50H1391ZM1363 43C1363 42.7682 1363.08 42.5445 1363.25 42.3644C1363.42 42.1738 1363.71 42 1364.08 42V46C1365.91 46 1367 44.4129 1367 43H1363Z" mask="url(#path-5-inside-3)"/><mask id="path-7-inside-4" fill="#fff"><path fill-rule="evenodd" d="M1027 31C1024.37 31 1022.14 32.6869 1021.33 35.0362C1020.97 36.08 1020.1 37 1019 37H1018C1014.69 37 1012 39.6863 1012 43C1012 46.3137 1014.69 49 1018 49H1045C1048.31 49 1051 46.3137 1051 43C1051 39.6863 1048.31 37 1045 37H1035C1033.9 37 1033.03 36.08 1032.67 35.0362C1031.86 32.6869 1029.63 31 1027 31Z" clip-rule="evenodd"/></mask><path fill="#676674" d="M1032.67 35.0362L1030.78 35.6905L1032.67 35.0362ZM1023.22 35.6905C1023.76 34.1218 1025.25 33 1027 33V29C1023.5 29 1020.52 31.252 1019.44 34.3819L1023.22 35.6905ZM1018 39H1019V35H1018V39ZM1014 43C1014 40.7909 1015.79 39 1018 39V35C1013.58 35 1010 38.5817 1010 43H1014ZM1018 47C1015.79 47 1014 45.2091 1014 43H1010C1010 47.4183 1013.58 51 1018 51V47ZM1045 47H1018V51H1045V47ZM1049 43C1049 45.2091 1047.21 47 1045 47V51C1049.42 51 1053 47.4183 1053 43H1049ZM1045 39C1047.21 39 1049 40.7909 1049 43H1053C1053 38.5817 1049.42 35 1045 35V39ZM1035 39H1045V35H1035V39ZM1027 33C1028.75 33 1030.24 34.1218 1030.78 35.6905L1034.56 34.3819C1033.48 31.2521 1030.5 29 1027 29V33ZM1035 35C1035.04 35 1035 35.0212 1034.9 34.9256C1034.78 34.8194 1034.65 34.628 1034.56 34.3819L1030.78 35.6905C1031.29 37.1524 1032.69 39 1035 39V35ZM1019.44 34.3819C1019.35 34.628 1019.22 34.8194 1019.1 34.9256C1019 35.0212 1018.96 35 1019 35V39C1021.31 39 1022.71 37.1524 1023.22 35.6905L1019.44 34.3819Z" mask="url(#path-7-inside-4)"/></svg>