<svg width="24" height="24" viewBox="0 0 24 24" fill="none" xmlns="http://www.w3.org/2000/svg">
<circle cx="12" cy="12" r="5" fill="white" stroke="#676674" stroke-width="2"/>
<rect x="11" width="2" height="5" rx="1" fill="#676674"/>
<rect x="11" y="19" width="2" height="5" rx="1" fill="#676674"/>
<rect x="19.7782" y="2.80762" width="2" height="5" rx="1" transform="rotate(45 19.7782 2.80762)" fill="#676674"/>
<rect x="6.34314" y="16.2426" width="2" height="5" rx="1" transform="rotate(45 6.34314 16.2426)" fill="#676674"/>
<rect x="24" y="11" width="2" height="5" rx="1" transform="rotate(90 24 11)" fill="#676674"/>
<rect x="5" y="11" width="2" height="5" rx="1" transform="rotate(90 5 11)" fill="#676674"/>
<rect x="21.1924" y="19.7782" width="2" height="5" rx="1" transform="rotate(135 21.1924 19.7782)" fill="#676674"/>
<rect x="7.75735" y="6.34317" width="2" height="5" rx="1" transform="rotate(135 7.75735 6.34317)" fill="#676674"/>
</svg>
