<svg xmlns="http://www.w3.org/2000/svg" width="1440" height="160" fill="none" viewBox="0 0 1440 160"><path fill="#5a6072" d="M0 94H1440V96H0V94Z"/><path fill="#eff1f5" stroke="#5a6072" stroke-width="2" d="M356.95 100.649L358.45 96.6489C358.596 96.2586 358.969 96 359.386 96H361.351C362.418 96 363.405 95.4333 363.943 94.5116L366.285 90.4961C366.464 90.1889 366.793 90 367.149 90H374.36C374.837 90 375.247 90.3365 375.341 90.8039L375.801 93.1022C376.021 94.2057 376.99 95 378.116 95C378.258 95 378.387 95.084 378.445 95.2143L379.359 94.8082L378.445 95.2143L380.836 100.594C381.13 101.255 380.646 102 379.922 102H357.886C357.188 102 356.705 101.303 356.95 100.649Z"/><path fill="#eff1f5" stroke="#5a6072" stroke-width="2" d="M949.31 124.725L948.453 121.725C948.33 121.296 947.938 121 947.491 121H946.117C944.702 121 943.48 120.012 943.183 118.629L942.361 114.79C942.262 114.329 941.855 114 941.383 114H936.354C935.945 114 935.577 114.249 935.426 114.629L934.497 114.257L935.426 114.629L934.331 117.365C933.954 118.307 933.128 118.994 932.134 119.193L929.155 119.789C928.853 119.849 928.595 120.046 928.457 120.322L926.342 124.553C926.009 125.218 926.493 126 927.236 126H948.349C949.013 126 949.493 125.364 949.31 124.725Z"/><path fill="#5a6072" d="M1209 67C1209 66.4477 1209.45 66 1210 66V66C1210.55 66 1211 66.4477 1211 67V95H1209V67Z"/><path fill="#5a6072" d="M1203 72C1202.45 72 1202 72.4477 1202 73V77.5C1202 81.6422 1205.36 85 1209.5 85V85C1209.78 85 1210 84.7761 1210 84.5V83.925C1210 83.3313 1209.51 82.8607 1208.93 82.7577C1206 82.2414 1204 79.6181 1204 76.3715V73C1204 72.4477 1203.55 72 1203 72V72Z"/><path fill="#5a6072" d="M1217 64C1217.55 64 1218 64.4477 1218 65V71.5C1218 75.6422 1214.64 79 1210.5 79V79C1210.22 79 1210 78.7761 1210 78.5V77.925C1210 77.3313 1210.49 76.8607 1211.07 76.7577C1214 76.2414 1216 73.6181 1216 70.3715V65C1216 64.4477 1216.45 64 1217 64V64Z"/><path fill="#eff1f5" stroke="#5a6072" stroke-width="2" d="M1211.73 95.876L1211.23 91.876C1211.16 91.3755 1210.74 91 1210.23 91H1208.65C1207.58 91 1206.6 90.4333 1206.06 89.5116L1203.72 85.4961C1203.54 85.1889 1203.21 85 1202.85 85H1197.54C1197.21 85 1196.91 85.1592 1196.72 85.4265L1194.42 88.7204C1193.86 89.5224 1192.94 90 1191.96 90H1190.44C1190.01 90 1189.63 90.2754 1189.49 90.6838L1187.83 95.6838C1187.61 96.3313 1188.09 97 1188.77 97H1210.73C1211.34 97 1211.8 96.4728 1211.73 95.876Z"/><path fill="#5a6072" d="M564 75C564 74.4477 564.448 74 565 74V74C565.552 74 566 74.4477 566 75V95H564V75Z"/><path fill="#5a6072" d="M571 72C571.552 72 572 72.4477 572 73V77.5C572 81.6422 569.642 84 565.5 84V84C565.224 84 565 83.7761 565 83.5V82.925C565 82.3313 565.485 81.8613 566.074 81.7842C568.809 81.4257 570 79.6046 570 76.3715V73C570 72.4477 570.448 72 571 72V72Z"/><path fill="#5a6072" d="M168 67C168 66.4477 168.448 66 169 66V66C169.552 66 170 66.4477 170 67V95H168V67Z"/><path fill="#5a6072" d="M162 62C161.448 62 161 62.4477 161 63V67.5C161 71.6422 164.358 75 168.5 75V75C168.776 75 169 74.7761 169 74.5V73.925C169 73.3313 168.514 72.8607 167.93 72.7577C165.001 72.2414 163 69.6181 163 66.3715V63C163 62.4477 162.552 62 162 62V62Z"/><path fill="#5a6072" d="M176 66C176.552 66 177 66.4477 177 67V73.5C177 77.6422 173.642 81 169.5 81V81C169.224 81 169 80.7761 169 80.5V79.925C169 79.3313 169.486 78.8607 170.07 78.7577C172.999 78.2414 175 75.6181 175 72.3715V67C175 66.4477 175.448 66 176 66V66Z"/></svg>