<svg xmlns="http://www.w3.org/2000/svg" width="24" height="24" fill="none" viewBox="0 0 24 24"><circle cx="12" cy="12" r="5" fill="#fff" stroke="#676674" stroke-width="2"/><rect width="2" height="5" x="11" fill="#676674" rx="1"/><rect width="2" height="5" x="11" y="19" fill="#676674" rx="1"/><rect width="2" height="5" x="19.778" y="2.808" fill="#676674" rx="1" transform="rotate(45 19.7782 2.80762)"/><rect width="2" height="5" x="6.343" y="16.243" fill="#676674" rx="1" transform="rotate(45 6.34314 16.2426)"/><rect width="2" height="5" x="24" y="11" fill="#676674" rx="1" transform="rotate(90 24 11)"/><rect width="2" height="5" x="5" y="11" fill="#676674" rx="1" transform="rotate(90 5 11)"/><rect width="2" height="5" x="21.192" y="19.778" fill="#676674" rx="1" transform="rotate(135 21.1924 19.7782)"/><rect width="2" height="5" x="7.757" y="6.343" fill="#676674" rx="1" transform="rotate(135 7.75735 6.34317)"/></svg>